<svg width="182" height="72" viewBox="0 0 182 72" fill="none" xmlns="http://www.w3.org/2000/svg">
<path d="M19.859 29.2733H28.0046V41.4917H19.859V70.5734H5.18355V41.4917H0V29.3743H5.18355V27.1528C5.11264 25.2994 5.42543 23.4513 6.10233 21.7245C6.77922 19.9976 7.80562 18.4293 9.11714 17.1178C10.4287 15.8063 11.997 14.7798 13.7238 14.1029C15.4507 13.4261 17.2987 13.1133 19.1522 13.1842C23.0793 13.2873 26.84 14.7916 29.7549 17.4253L27.1294 26.345C26.0477 25.5231 24.7176 25.0955 23.3596 25.1333C22.8548 25.1668 22.3619 25.3017 21.9104 25.5298C21.4588 25.7578 21.0577 26.0744 20.7311 26.4608C20.4044 26.8471 20.1589 27.2952 20.0091 27.7784C19.8592 28.2616 19.8082 28.77 19.859 29.2733Z" fill="white"/>
<path d="M68.2269 46.1711V70.4732H53.4841V67.5448C50.5428 70.0934 46.773 71.4816 42.8814 71.4493C34.029 71.4493 26.9941 66.0302 26.9941 58.2885C26.9941 50.5468 34.8031 44.5891 44.7663 44.5891C47.7613 44.6353 50.7201 45.2522 53.4841 46.4067V46.1711C53.4841 42.0983 49.8152 39.7085 45.0019 39.7085C41.4488 39.7352 37.9657 40.6989 34.9041 42.5023L30.2254 33.1786C36.023 30.0864 42.4714 28.4137 49.041 28.298C59.6101 28.298 68.2269 34.9289 68.2269 46.1711ZM53.4841 58.2885V54.384C51.3544 53.4911 49.061 53.0553 46.7522 53.1049C46.0839 53.0447 45.4103 53.1229 44.7736 53.3347C44.1368 53.5464 43.5506 53.8873 43.0515 54.3358C42.5524 54.7844 42.1512 55.331 41.8729 55.9416C41.5946 56.5522 41.4452 57.2136 41.434 57.8846C41.4446 58.519 41.587 59.1443 41.8521 59.7207C42.1173 60.2972 42.4993 60.8122 42.9741 61.2331C43.4488 61.6541 44.0059 61.9717 44.6099 62.1659C45.214 62.3601 45.8518 62.4267 46.4829 62.3613C50.2864 62.3613 53.2148 60.6783 53.4841 58.3221V58.2885Z" fill="white"/>
<path d="M140.793 44.2512V70.5392H126.117V46.9776C126.164 46.1928 126.047 45.4068 125.774 44.6698C125.5 43.9327 125.076 43.2608 124.528 42.697C123.98 42.1332 123.32 41.6899 122.591 41.3953C121.862 41.1007 121.08 40.9615 120.294 40.9863C119.542 40.935 118.787 41.0403 118.078 41.2955C117.368 41.5508 116.719 41.9504 116.172 42.4691C115.625 42.9879 115.191 43.6146 114.898 44.3095C114.605 45.0044 114.46 45.7524 114.471 46.5064V70.4719H99.8292V46.9103C99.8713 46.1267 99.7507 45.3429 99.4752 44.6082C99.1997 43.8735 98.7751 43.2037 98.2282 42.6409C97.6813 42.0782 97.0239 41.6348 96.2973 41.3384C95.5707 41.042 94.7906 40.8992 94.0062 40.9189C93.2539 40.8677 92.4991 40.9729 91.7896 41.2282C91.08 41.4834 90.4312 41.8831 89.8839 42.4019C89.3367 42.9206 88.903 43.5472 88.6102 44.2421C88.3175 44.937 88.1721 45.6851 88.1831 46.4391V70.3372H72.8008V29.2728H88.1831V34.288C89.2365 32.4029 90.7905 30.8456 92.6735 29.7882C94.5565 28.7309 96.6951 28.2147 98.8531 28.2967C101.397 28.2568 103.911 28.8514 106.168 30.0267C108.424 31.202 110.353 32.9211 111.778 35.0286C113.231 32.8205 115.241 31.0352 117.605 29.8531C119.97 28.6711 122.604 28.1342 125.242 28.2967C127.321 28.2867 129.381 28.6955 131.299 29.4989C133.217 30.3023 134.953 31.4837 136.404 32.9727C137.856 34.4617 138.992 36.2277 139.746 38.1654C140.5 40.1032 140.856 42.173 140.793 44.2512Z" fill="white"/>
<path d="M162.808 46.817C162.781 46.8439 162.751 46.8672 162.718 46.8863C162.579 46.9646 162.407 46.9529 162.28 46.8566C161.085 46.1039 154.856 41.8156 150.778 36.7993C150.549 36.5121 150.439 36.3784 150.444 36.21C150.374 33.8579 154.557 31.1888 157.754 29.4705H157.784C157.825 29.4441 157.878 29.4416 157.922 29.464C157.966 29.4864 157.995 29.5303 157.998 29.5794C157.998 32.8873 158.929 41.9592 162.833 46.1683C163.002 46.3555 162.991 46.6431 162.808 46.817Z" fill="url(#paint0_linear_502_2612)"/>
<path d="M161.084 26.0008L170.486 21.7943C172.891 20.8672 174.765 18.954 175.619 16.5549L176.793 13.3122C176.833 13.182 176.794 13.0407 176.693 12.9479C176.592 12.8552 176.446 12.8271 176.317 12.8756L158.358 20.362L158.423 20.0798C158.515 19.5549 158.84 19.098 159.31 18.8338C162.35 16.9915 173.245 11.5072 173.245 11.5072C176.701 9.91807 179.296 6.94267 180.369 3.3392L181.191 0.565069C181.239 0.402364 181.188 0.226998 181.06 0.113605C180.932 0.000212054 180.75 -0.0312508 180.591 0.0326066C180.591 0.0326066 164.195 6.30501 158.926 8.82356C153.657 11.3421 148.259 14.5901 146.387 24.1318C145.63 27.9975 147.02 31.2722 149.633 34.9781C149.617 31.3307 158.98 27.0018 161.084 26.0008Z" fill="url(#paint1_linear_502_2612)"/>
<path d="M138.762 10.4976C137.469 9.36881 136.369 9.27252 136.177 9.36881C136.097 9.02643 137.662 8.18119 137.855 7.96186C138.489 7.27175 138.846 6.35697 139.589 5.76851C141.102 4.54344 142.973 4.92327 144.543 5.89155C145.342 6.39441 147.541 8.0314 147.574 8.117C148.825 9.18129 149.992 10.3681 151.062 11.6638C151.136 11.7387 151.181 11.8448 151.185 11.9577C151.19 12.0707 151.154 12.1808 151.085 12.263C150.94 12.3914 150.615 12.6909 150.051 13.258C146.352 17.1044 145.267 22.6145 144.994 24.5992C144.994 24.642 144.942 24.9844 144.942 24.9844C144.942 24.9844 143.142 14.0069 138.762 10.4976Z" fill="url(#paint2_linear_502_2612)"/>
<defs>
<linearGradient id="paint0_linear_502_2612" x1="158.691" y1="0" x2="158.691" y2="46.9378" gradientUnits="userSpaceOnUse">
<stop stop-color="#F69022"/>
<stop offset="1" stop-color="#F69123"/>
</linearGradient>
<linearGradient id="paint1_linear_502_2612" x1="158.691" y1="0" x2="158.691" y2="46.9378" gradientUnits="userSpaceOnUse">
<stop stop-color="#F69022"/>
<stop offset="1" stop-color="#F69123"/>
</linearGradient>
<linearGradient id="paint2_linear_502_2612" x1="158.691" y1="0" x2="158.691" y2="46.9378" gradientUnits="userSpaceOnUse">
<stop stop-color="#F69022"/>
<stop offset="1" stop-color="#F69123"/>
</linearGradient>
</defs>
</svg>
