<svg width="157" height="28" viewBox="0 0 157 28" fill="none" xmlns="http://www.w3.org/2000/svg">
<path d="M2.79053 7.28881L8.30779 1.70557L9.52207 4.4968L6.73154 7.28881H14.6482C14.971 7.28999 15.2862 7.3869 15.5539 7.56731C15.8217 7.74772 16.03 8.00351 16.1525 8.30234C16.275 8.60118 16.3061 8.92964 16.2421 9.2462C16.178 9.56276 16.0215 9.8532 15.7925 10.0808L0 25.8947V21.9447L2.79053 19.1535L9.06864 12.872C9.29562 12.6415 10.1492 11.8435 10.2104 11.5257C10.2716 11.208 10.2705 11.1088 10.1454 10.8104C10.0202 10.512 9.89455 10.339 9.62508 10.16C9.35561 9.98109 8.22158 10.0803 7.89817 10.0808H3.94332C3.61979 10.0813 3.3034 9.98559 3.03434 9.80583C2.76528 9.62606 2.55568 9.37036 2.43215 9.07118C2.30862 8.77199 2.27674 8.44283 2.34054 8.12548C2.40435 7.80814 2.56098 7.51692 2.79053 7.28881Z" fill="#028EC0"/>
<path d="M20.6561 21.2571L23.4467 18.4651L26.2503 19.6185L20.6738 25.2025C20.4458 25.4322 20.1548 25.5889 19.8376 25.6528C19.5204 25.7166 19.1914 25.6847 18.8924 25.5611C18.5934 25.4375 18.3378 25.2278 18.1581 24.9586C17.9785 24.6894 17.8828 24.3729 17.8833 24.0491V20.0853C17.8816 19.7626 17.9756 18.7728 17.7958 18.5049C17.616 18.237 17.5084 17.9783 17.2105 17.8546C16.9126 17.7309 16.4951 17.7895 16.1049 18.0497C15.7883 18.1115 15.3224 18.6999 15.0928 18.9265L8.81466 25.2079L6.02413 27.9999H2.08081L17.8656 12.2045C18.0936 11.9748 18.3847 11.8181 18.7018 11.7542C19.019 11.6904 19.348 11.7223 19.647 11.8459C19.9461 11.9695 20.2016 12.1792 20.3813 12.4484C20.561 12.7176 20.6566 13.0342 20.6561 13.3579V21.2571Z" fill="#028EC0"/>
<path d="M8.58545 1.57666H23.6171H26.4215V19.3391L23.6179 18.1857V4.3679H9.79972L8.58545 1.57666Z" fill="#38B9E6"/>
<path d="M42.0194 22.1938C41.3449 22.1938 40.6847 22.1363 40.0388 22.0215C39.393 21.9067 38.7902 21.7417 38.2305 21.5264C37.6851 21.3111 37.1899 21.0384 36.745 20.7083C36.5728 20.5791 36.4508 20.4356 36.379 20.2777C36.3216 20.1055 36.3073 19.9405 36.336 19.7826C36.379 19.6104 36.4508 19.4669 36.5513 19.352C36.6661 19.2372 36.8024 19.1726 36.9603 19.1583C37.1182 19.1439 37.2904 19.1942 37.477 19.309C38.1228 19.7682 38.8117 20.1055 39.5437 20.3208C40.2756 20.5217 41.1009 20.6222 42.0194 20.6222C43.3111 20.6222 44.2655 20.3854 44.8827 19.9118C45.5141 19.4238 45.8299 18.7851 45.8299 17.9958C45.8299 17.3499 45.6003 16.8476 45.141 16.4888C44.6961 16.1156 43.9426 15.8214 42.8805 15.6061L40.6416 15.154C39.2925 14.867 38.2807 14.4006 37.6061 13.7547C36.9459 13.0945 36.6158 12.219 36.6158 11.1283C36.6158 10.4537 36.7522 9.84377 37.0249 9.29839C37.2976 8.73866 37.6779 8.26504 38.1659 7.87753C38.6538 7.47567 39.2351 7.1671 39.9096 6.95182C40.5842 6.73654 41.3305 6.6289 42.1486 6.6289C43.0528 6.6289 43.8924 6.75807 44.6674 7.0164C45.4567 7.26039 46.1672 7.63354 46.7987 8.13587C46.9565 8.26504 47.0642 8.41573 47.1216 8.58796C47.179 8.74583 47.1862 8.90371 47.1431 9.06158C47.1001 9.2051 47.0211 9.32709 46.9063 9.42756C46.8058 9.52802 46.6695 9.58543 46.4973 9.59978C46.3394 9.61413 46.16 9.55673 45.9591 9.42756C45.385 8.99699 44.7894 8.68842 44.1722 8.50185C43.5551 8.30092 42.8734 8.20045 42.127 8.20045C41.3664 8.20045 40.7062 8.31527 40.1465 8.5449C39.6011 8.77454 39.1705 9.11181 38.8548 9.55673C38.5534 9.98729 38.4027 10.4896 38.4027 11.0637C38.4027 11.7526 38.6108 12.298 39.027 12.6998C39.4576 13.1017 40.1536 13.3959 41.1152 13.5825L43.3542 14.0561C44.8037 14.3575 45.8729 14.8168 46.5618 15.4339C47.2651 16.0367 47.6167 16.8619 47.6167 17.9097C47.6167 18.5411 47.4876 19.1224 47.2292 19.6534C46.9709 20.1845 46.5977 20.6437 46.1098 21.0312C45.6218 21.4044 45.0333 21.6914 44.3444 21.8924C43.6555 22.0933 42.8805 22.1938 42.0194 22.1938ZM53.8219 22.1938C52.9751 22.1938 52.2719 22.0431 51.7121 21.7417C51.1667 21.4259 50.7505 20.9595 50.4635 20.3423C50.1908 19.7252 50.0545 18.9574 50.0545 18.0388V12.2693C50.0545 11.9679 50.1262 11.7454 50.2697 11.6019C50.4276 11.4584 50.6429 11.3866 50.9156 11.3866C51.2026 11.3866 51.4179 11.4584 51.5614 11.6019C51.7193 11.7454 51.7982 11.9679 51.7982 12.2693V18.0173C51.7982 18.9358 51.9848 19.6247 52.358 20.084C52.7455 20.5289 53.3483 20.7514 54.1663 20.7514C55.0562 20.7514 55.7809 20.45 56.3407 19.8472C56.9004 19.2444 57.1803 18.455 57.1803 17.4791V12.2693C57.1803 11.9679 57.252 11.7454 57.3956 11.6019C57.5534 11.4584 57.7759 11.3866 58.0629 11.3866C58.3356 11.3866 58.5437 11.4584 58.6872 11.6019C58.8451 11.7454 58.9241 11.9679 58.9241 12.2693V21.2465C58.9241 21.8493 58.6442 22.1507 58.0845 22.1507C57.8118 22.1507 57.5965 22.0718 57.4386 21.9139C57.2951 21.756 57.2233 21.5336 57.2233 21.2465V19.2875L57.5032 19.5888C57.2162 20.4356 56.7425 21.0815 56.0823 21.5264C55.4365 21.9713 54.683 22.1938 53.8219 22.1938ZM63.0477 26.0258C62.7607 26.0258 62.5454 25.9468 62.4019 25.789C62.2583 25.6454 62.1866 25.4302 62.1866 25.1431V12.2693C62.1866 11.9822 62.2583 11.7669 62.4019 11.6234C62.5454 11.4656 62.7535 11.3866 63.0262 11.3866C63.3132 11.3866 63.5285 11.4656 63.672 11.6234C63.8299 11.7669 63.9088 11.9822 63.9088 12.2693V14.3144L63.672 14.0131C63.9017 13.195 64.3537 12.5491 65.0283 12.0755C65.7172 11.5875 66.5353 11.3436 67.4825 11.3436C68.4154 11.3436 69.2263 11.566 69.9152 12.0109C70.6184 12.4415 71.1566 13.0658 71.5298 13.8839C71.9173 14.6876 72.1111 15.6492 72.1111 16.7687C72.1111 17.8738 71.9173 18.8354 71.5298 19.6534C71.1566 20.4571 70.6256 21.0815 69.9367 21.5264C69.2478 21.9713 68.4297 22.1938 67.4825 22.1938C66.5353 22.1938 65.7244 21.9569 65.0498 21.4833C64.3753 20.9954 63.916 20.3495 63.672 19.5458H63.9304V25.1431C63.9304 25.4302 63.8514 25.6454 63.6935 25.789C63.5357 25.9468 63.3204 26.0258 63.0477 26.0258ZM67.1165 20.7944C67.7767 20.7944 68.3436 20.6366 68.8172 20.3208C69.3052 20.0051 69.6784 19.5458 69.9367 18.943C70.2094 18.3402 70.3457 17.6154 70.3457 16.7687C70.3457 15.4626 70.0515 14.4651 69.4631 13.7762C68.889 13.0873 68.1068 12.7429 67.1165 12.7429C66.4707 12.7429 65.9038 12.9008 65.4158 13.2165C64.9278 13.5179 64.5475 13.97 64.2748 14.5728C64.0165 15.1612 63.8873 15.8932 63.8873 16.7687C63.8873 18.0603 64.1815 19.0578 64.77 19.7611C65.3584 20.45 66.1406 20.7944 67.1165 20.7944ZM75.5988 26.0258C75.3117 26.0258 75.0965 25.9468 74.9529 25.789C74.8094 25.6454 74.7377 25.4302 74.7377 25.1431V12.2693C74.7377 11.9822 74.8094 11.7669 74.9529 11.6234C75.0965 11.4656 75.3046 11.3866 75.5773 11.3866C75.8643 11.3866 76.0796 11.4656 76.2231 11.6234C76.381 11.7669 76.4599 11.9822 76.4599 12.2693V14.3144L76.2231 14.0131C76.4527 13.195 76.9048 12.5491 77.5794 12.0755C78.2683 11.5875 79.0863 11.3436 80.0336 11.3436C80.9665 11.3436 81.7774 11.566 82.4663 12.0109C83.1695 12.4415 83.7077 13.0658 84.0809 13.8839C84.4684 14.6876 84.6621 15.6492 84.6621 16.7687C84.6621 17.8738 84.4684 18.8354 84.0809 19.6534C83.7077 20.4571 83.1767 21.0815 82.4878 21.5264C81.7989 21.9713 80.9808 22.1938 80.0336 22.1938C79.0863 22.1938 78.2755 21.9569 77.6009 21.4833C76.9264 20.9954 76.4671 20.3495 76.2231 19.5458H76.4814V25.1431C76.4814 25.4302 76.4025 25.6454 76.2446 25.789C76.0868 25.9468 75.8715 26.0258 75.5988 26.0258ZM79.6676 20.7944C80.3278 20.7944 80.8947 20.6366 81.3683 20.3208C81.8563 20.0051 82.2295 19.5458 82.4878 18.943C82.7605 18.3402 82.8968 17.6154 82.8968 16.7687C82.8968 15.4626 82.6026 14.4651 82.0142 13.7762C81.4401 13.0873 80.6579 12.7429 79.6676 12.7429C79.0218 12.7429 78.4549 12.9008 77.9669 13.2165C77.4789 13.5179 77.0986 13.97 76.8259 14.5728C76.5676 15.1612 76.4384 15.8932 76.4384 16.7687C76.4384 18.0603 76.7326 19.0578 77.321 19.7611C77.9095 20.45 78.6917 20.7944 79.6676 20.7944ZM90.4749 22.1938C89.4416 22.1938 88.6522 21.878 88.1068 21.2465C87.5614 20.615 87.2887 19.7108 87.2887 18.534V7.55461C87.2887 7.26757 87.3605 7.05228 87.504 6.90876C87.6475 6.75089 87.8628 6.67195 88.1499 6.67195C88.4226 6.67195 88.6378 6.75089 88.7957 6.90876C88.9536 7.05228 89.0325 7.26757 89.0325 7.55461V18.4048C89.0325 19.1798 89.1832 19.7611 89.4846 20.1486C89.8004 20.5217 90.2596 20.7083 90.8624 20.7083C90.9916 20.7083 91.1064 20.7011 91.2069 20.6868C91.3073 20.6724 91.4078 20.6653 91.5083 20.6653C91.6661 20.6509 91.7738 20.6868 91.8312 20.7729C91.9029 20.859 91.9388 21.0312 91.9388 21.2896C91.9388 21.5479 91.8814 21.7417 91.7666 21.8708C91.6518 22 91.4652 22.0861 91.2069 22.1292C91.0921 22.1435 90.9701 22.1579 90.8409 22.1722C90.7117 22.1866 90.5897 22.1938 90.4749 22.1938ZM95.7527 26.0258C95.5374 26.0258 95.3652 25.9684 95.236 25.8535C95.1068 25.7387 95.0279 25.5808 94.9992 25.3799C94.9848 25.1933 95.0207 24.9996 95.1068 24.7987L96.5923 21.4618V22.2153L92.4589 12.6137C92.3727 12.3984 92.344 12.1975 92.3727 12.0109C92.4015 11.8244 92.4876 11.6737 92.6311 11.5588C92.7746 11.444 92.9755 11.3866 93.2339 11.3866C93.4635 11.3866 93.6429 11.4369 93.7721 11.5373C93.9012 11.6378 94.0161 11.8172 94.1165 12.0755L97.6471 20.7298H97.0659L100.64 12.0755C100.754 11.8172 100.876 11.6378 101.006 11.5373C101.135 11.4369 101.321 11.3866 101.565 11.3866C101.795 11.3866 101.967 11.444 102.082 11.5588C102.211 11.6737 102.283 11.8244 102.297 12.0109C102.326 12.1832 102.297 12.3769 102.211 12.5922L96.6999 25.3369C96.5851 25.5952 96.4559 25.7746 96.3124 25.8751C96.1832 25.9755 95.9967 26.0258 95.7527 26.0258ZM105.928 22.1938C105.426 22.1938 105.039 22.0574 104.766 21.7847C104.508 21.4977 104.378 21.0958 104.378 20.5791V8.30809C104.378 7.76271 104.508 7.3465 104.766 7.05946C105.039 6.77242 105.397 6.6289 105.842 6.6289C106.23 6.6289 106.524 6.70783 106.725 6.86571C106.94 7.00923 107.184 7.25321 107.457 7.59766L115.013 17.2207H114.432V8.22198C114.432 7.71966 114.561 7.33215 114.82 7.05946C115.092 6.77242 115.48 6.6289 115.982 6.6289C116.484 6.6289 116.865 6.77242 117.123 7.05946C117.396 7.33215 117.532 7.71966 117.532 8.22198V20.6437C117.532 21.1173 117.41 21.4977 117.166 21.7847C116.922 22.0574 116.592 22.1938 116.176 22.1938C115.774 22.1938 115.451 22.1148 115.207 21.9569C114.977 21.7991 114.726 21.5479 114.454 21.2035L106.919 11.5804H107.478V20.5791C107.478 21.0958 107.349 21.4977 107.091 21.7847C106.833 22.0574 106.445 22.1938 105.928 22.1938ZM125.388 22.2368C124.255 22.2368 123.264 22.0144 122.417 21.5694C121.585 21.1245 120.939 20.4859 120.48 19.6534C120.021 18.821 119.791 17.8379 119.791 16.7041C119.791 15.8573 119.92 15.0966 120.179 14.4221C120.437 13.7475 120.81 13.1735 121.298 12.6998C121.8 12.2119 122.396 11.8459 123.085 11.6019C123.774 11.3436 124.542 11.2144 125.388 11.2144C126.522 11.2144 127.505 11.4369 128.338 11.8818C129.184 12.3267 129.838 12.9582 130.297 13.7762C130.77 14.5943 131.007 15.5703 131.007 16.7041C131.007 17.5652 130.871 18.333 130.598 19.0076C130.34 19.6821 129.967 20.2634 129.479 20.7514C128.991 21.2393 128.395 21.6125 127.692 21.8708C127.003 22.1148 126.235 22.2368 125.388 22.2368ZM125.388 19.8041C125.862 19.8041 126.271 19.6893 126.615 19.4597C126.96 19.23 127.233 18.8928 127.434 18.4479C127.634 17.9886 127.735 17.4073 127.735 16.7041C127.735 15.6564 127.52 14.8885 127.089 14.4006C126.659 13.8982 126.092 13.6471 125.388 13.6471C124.929 13.6471 124.52 13.7547 124.161 13.97C123.817 14.1853 123.544 14.5226 123.343 14.9818C123.157 15.4267 123.063 16.0008 123.063 16.7041C123.063 17.7518 123.279 18.534 123.709 19.0506C124.14 19.553 124.699 19.8041 125.388 19.8041ZM138.068 22.2368C137.078 22.2368 136.245 22.0718 135.571 21.7417C134.911 21.4116 134.415 20.9308 134.085 20.2993C133.77 19.6678 133.612 18.8712 133.612 17.9097V13.8624H132.708C132.306 13.8624 131.99 13.7547 131.76 13.5394C131.545 13.3242 131.437 13.0299 131.437 12.6568C131.437 12.2549 131.545 11.9535 131.76 11.7526C131.99 11.5373 132.306 11.4297 132.708 11.4297H133.612V9.79354C133.612 9.24816 133.755 8.83912 134.042 8.56643C134.329 8.27939 134.731 8.13587 135.248 8.13587C135.779 8.13587 136.181 8.27939 136.453 8.56643C136.726 8.83912 136.863 9.24816 136.863 9.79354V11.4297H138.908C139.31 11.4297 139.618 11.5373 139.833 11.7526C140.049 11.9535 140.156 12.2549 140.156 12.6568C140.156 13.0299 140.049 13.3242 139.833 13.5394C139.618 13.7547 139.31 13.8624 138.908 13.8624H136.863V17.7805C136.863 18.3833 136.999 18.8354 137.272 19.1368C137.559 19.4381 138.011 19.5888 138.628 19.5888C138.843 19.5888 139.044 19.5673 139.231 19.5243C139.417 19.4812 139.589 19.4525 139.747 19.4381C139.948 19.4238 140.113 19.4884 140.242 19.6319C140.372 19.7611 140.436 20.0553 140.436 20.5146C140.436 20.859 140.379 21.1604 140.264 21.4187C140.149 21.6771 139.948 21.8637 139.661 21.9785C139.475 22.0502 139.216 22.1076 138.886 22.1507C138.57 22.2081 138.298 22.2368 138.068 22.2368ZM146.968 22.2368C145.72 22.2368 144.643 22.0144 143.739 21.5694C142.849 21.1102 142.16 20.4715 141.672 19.6534C141.199 18.821 140.962 17.8451 140.962 16.7256C140.962 15.6348 141.191 14.6804 141.651 13.8624C142.11 13.0299 142.749 12.3841 143.567 11.9248C144.399 11.4512 145.339 11.2144 146.387 11.2144C147.148 11.2144 147.836 11.3436 148.454 11.6019C149.071 11.8459 149.602 12.2047 150.047 12.6783C150.492 13.1376 150.829 13.7045 151.058 14.379C151.288 15.0392 151.403 15.7784 151.403 16.5964C151.403 16.8691 151.317 17.0772 151.145 17.2207C150.972 17.3499 150.721 17.4145 150.391 17.4145H143.631V15.7353H149.056L148.712 16.0367C148.712 15.4483 148.626 14.9603 148.454 14.5728C148.281 14.1709 148.03 13.8695 147.7 13.6686C147.384 13.4677 146.99 13.3672 146.516 13.3672C145.985 13.3672 145.533 13.4892 145.16 13.7332C144.787 13.9772 144.5 14.3288 144.299 14.7881C144.098 15.2473 143.997 15.7999 143.997 16.4457V16.618C143.997 17.7087 144.248 18.5124 144.751 19.0291C145.267 19.5458 146.028 19.8041 147.033 19.8041C147.377 19.8041 147.772 19.7611 148.217 19.675C148.662 19.5888 149.078 19.4525 149.465 19.2659C149.796 19.1081 150.09 19.0578 150.348 19.1152C150.606 19.1583 150.807 19.2731 150.951 19.4597C151.094 19.6463 151.173 19.8615 151.188 20.1055C151.216 20.3495 151.166 20.5935 151.037 20.8375C150.908 21.0671 150.693 21.2609 150.391 21.4187C149.903 21.6914 149.351 21.8924 148.733 22.0215C148.131 22.165 147.542 22.2368 146.968 22.2368Z" fill="white"/>
</svg>
